<?xml version="1.0" standalone="no"?>
<!DOCTYPE svg PUBLIC "-//W3C//DTD SVG 20010904//EN"
 "http://www.w3.org/TR/2001/REC-SVG-20010904/DTD/svg10.dtd">
<svg version="1.0" xmlns="http://www.w3.org/2000/svg"
 width="1024.000000pt" height="1024.000000pt" viewBox="0 0 1024.000000 1024.000000"
 preserveAspectRatio="xMidYMid meet">
<metadata>
Created by potrace 1.14, written by Peter Selinger 2001-2017
</metadata>
<g transform="translate(0.000000,1024.000000) scale(0.100000,-0.100000)"
fill="#9e9e9e" stroke="none">
<path d="M1679 10227 c-80 -11 -188 -68 -253 -133 -61 -62 -95 -116 -122 -196
-18 -51 -18 -234 -18 -4778 l0 -4725 23 -64 c57 -164 198 -287 361 -317 25 -4
1573 -8 3440 -9 2635 -1 3410 2 3461 11 190 35 347 196 377 385 4 30 8 1535 7
3344 l0 3290 -1365 1 c-751 1 -1388 4 -1416 7 -206 26 -376 192 -408 397 -3
19 -6 656 -6 1415 l-1 1380 -2013 0 c-1107 0 -2037 -3 -2067 -8z m5037 -4667
c38 -19 95 -60 137 -99 77 -72 237 -259 297 -346 53 -77 132 -197 154 -235 43
-72 161 -318 191 -399 64 -171 130 -427 150 -587 4 -27 8 -60 11 -74 28 -162
22 -622 -11 -814 -21 -126 -46 -247 -61 -302 -8 -28 -17 -60 -19 -70 -8 -35
-73 -220 -100 -285 -129 -308 -358 -653 -589 -885 -71 -72 -191 -134 -294
-153 -127 -24 -279 14 -373 94 -115 98 -187 263 -177 407 6 76 53 187 104 243
133 146 170 190 251 303 71 98 189 330 227 442 70 212 99 389 100 615 1 148
-8 305 -18 337 -3 7 -7 31 -10 53 -29 218 -172 554 -318 750 -31 41 -120 149
-160 193 -141 157 -196 372 -138 542 53 156 165 249 365 303 11 3 64 5 117 3
86 -3 105 -7 164 -36z m-2363 -474 c61 -30 99 -74 117 -137 7 -22 10 -543 10
-1431 0 -1505 3 -1440 -51 -1506 -38 -47 -122 -85 -188 -85 -31 -1 -69 6 -84
14 -16 9 -201 188 -412 398 l-382 383 -319 2 c-312 1 -320 2 -366 25 -27 12
-57 36 -69 53 -45 63 -46 79 -45 738 l1 625 26 45 c62 105 77 109 459 110
l312 1 382 381 c254 254 394 387 420 399 55 24 120 19 189 -15z m1268 -506
c115 -35 220 -124 350 -295 133 -174 229 -416 255 -635 36 -317 -20 -634 -158
-890 -167 -308 -349 -446 -596 -448 -147 -1 -268 58 -356 172 -48 64 -73 112
-91 183 -47 174 -14 300 120 460 103 123 135 208 130 345 -3 107 -41 208 -102
273 -202 216 -213 527 -26 711 123 121 319 173 474 124z"/>
<path d="M6399 10206 c-3 -197 0 -2517 4 -2523 3 -4 578 -8 1279 -7 l1273 1 0
84 c1 46 -5 111 -12 144 -31 138 14 89 -1091 1196 -687 688 -1041 1036 -1077
1058 -94 57 -149 72 -267 75 l-108 2 -1 -30z"/>
</g>
</svg>
